<svg width="114" height="34" viewBox="0 0 114 34" fill="none" xmlns="http://www.w3.org/2000/svg">
<g id="Layer_1-2">
<g id="Group">
<path id="Vector" d="M16.5841 33.0804C25.7432 33.0804 33.1681 25.6751 33.1681 16.5402C33.1681 7.40529 25.7432 0 16.5841 0C7.42494 0 0 7.40529 0 16.5402C0 25.6751 7.42494 33.0804 16.5841 33.0804Z" fill="#F93822"/>
<g id="Group_2">
<path id="Vector_2" d="M25.0436 7.93781H23.4687C22.8208 7.93781 22.2572 8.38172 22.1124 9.01212L20.6507 15.261H12.2652L10.9694 9.82376L10.8562 9.32469C10.6876 8.57609 9.94228 8.10591 9.19169 8.2714C8.4411 8.4395 7.96704 9.18285 8.1356 9.93145L9.80533 16.9709C9.95545 17.5961 10.5164 18.04 11.1617 18.04H20.0002L19.4629 20.341H12.2204C11.4514 20.341 10.8272 20.9635 10.8272 21.7305C10.8272 22.4975 11.4514 23.12 12.2204 23.12H20.569C21.2169 23.12 21.7805 22.6761 21.9254 22.0457L24.5774 10.7142H25.0462C25.8153 10.7142 26.4394 10.0917 26.4394 9.32469C26.4394 8.5577 25.8153 7.93518 25.0462 7.93518L25.0436 7.93781Z" fill="white"/>
<path id="Vector_3" d="M13.0339 24.6986C12.1016 24.6986 11.3457 25.4551 11.3457 26.3823C11.3457 27.3095 12.1042 28.0686 13.0339 28.0686C13.9635 28.0686 14.722 27.3122 14.722 26.3823C14.722 25.4525 13.9635 24.6986 13.0339 24.6986Z" fill="white"/>
<path id="Vector_4" d="M19.6205 24.6986C18.6882 24.6986 17.9297 25.4551 17.9297 26.3823C17.9297 27.3095 18.6882 28.0686 19.6205 28.0686C20.5528 28.0686 21.3087 27.3122 21.3087 26.3823C21.3087 25.4525 20.5502 24.6986 19.6205 24.6986Z" fill="white"/>
</g>
<g id="Group_3">
<path id="Vector_5" d="M41.3455 25.0899C40.9452 24.956 40.5001 24.625 40.5001 23.9815C40.5001 23.3379 41.011 22.873 41.5904 22.873C41.8143 22.873 41.946 22.9177 42.0803 22.9623C42.3911 23.0516 42.636 23.1173 43.0152 23.1173C43.8159 23.1173 44.2399 22.7837 44.6823 21.8749L44.7719 21.6306L40.4132 11.9145C40.3237 11.7149 40.2578 11.4496 40.2578 11.271C40.2578 10.5171 40.8372 9.96289 41.5931 9.96289C42.2831 9.96289 42.6597 10.3621 42.9046 10.9847L46.0624 18.7701L48.9989 10.9847C49.2201 10.4304 49.5994 9.96289 50.2894 9.96289C50.9794 9.96289 51.5799 10.5171 51.5799 11.2263C51.5799 11.447 51.514 11.7359 51.4692 11.8699L47.1764 22.1402C46.1756 24.5357 45.109 25.4235 43.218 25.4235C42.4622 25.4235 41.9065 25.3132 41.3508 25.0899H41.3455Z" fill="#231F20"/>
<path id="Vector_6" d="M53 16.0174V15.9728C53 12.6237 55.6679 9.84998 59.2733 9.84998C62.8788 9.84998 65.523 12.5791 65.523 15.9281V15.9728C65.523 19.3008 62.8551 22.0745 59.2286 22.0745C55.602 22.0745 53 19.3454 53 16.0174ZM62.8314 16.0174V15.9728C62.8314 13.9108 61.3408 12.2009 59.2286 12.2009C57.1164 12.2009 55.6916 13.8872 55.6916 15.9281V15.9728C55.6916 18.0137 57.1822 19.721 59.2733 19.721C61.3645 19.721 62.8314 18.0347 62.8314 16.0174Z" fill="#231F20"/>
<path id="Vector_7" d="M78.6853 20.5878C78.6853 21.3206 78.0849 21.9195 77.329 21.9195C76.5731 21.9195 75.9727 21.3416 75.9727 20.5878V19.9889C75.2168 21.0974 74.1265 22.0509 72.3014 22.0509C69.6546 22.0509 68.1191 20.2752 68.1191 17.5487V11.3156C68.1191 10.5618 68.7196 9.96289 69.4544 9.96289C70.1892 9.96289 70.8107 10.5618 70.8107 11.3156V16.7502C70.8107 18.5679 71.722 19.5897 73.3232 19.5897C74.9245 19.5897 75.97 18.5259 75.97 16.7056V11.3156C75.97 10.5618 76.5705 9.96289 77.3264 9.96289C78.0822 9.96289 78.6827 10.5618 78.6827 11.3156V20.5878H78.6853Z" fill="#231F20"/>
<path id="Vector_8" d="M93.5851 20.5879C93.5851 21.3417 92.9847 21.9196 92.2499 21.9196C91.5151 21.9196 90.8936 21.3417 90.8936 20.5879V19.855C90.0271 21.0764 88.8024 22.0509 86.8904 22.0509C84.133 22.0509 81.4414 19.855 81.4414 15.9728V15.9281C81.4414 12.0459 84.0882 9.85002 86.8904 9.85002C88.8261 9.85002 90.0482 10.8035 90.8936 11.912V6.83197C90.8936 6.07811 91.494 5.50024 92.2288 5.50024C92.9636 5.50024 93.5851 6.07549 93.5851 6.83197V20.5852V20.5879ZM84.1541 15.9281V15.9728C84.1541 18.2344 85.7105 19.7211 87.5357 19.7211C89.3608 19.7211 90.9383 18.2134 90.9383 15.9728V15.9281C90.9383 13.6666 89.3371 12.1799 87.5357 12.1799C85.7342 12.1799 84.1541 13.6009 84.1541 15.9281Z" fill="#231F20"/>
<path id="Vector_9" d="M97.1191 6.83453C97.1191 6.10169 97.6985 5.50281 98.4544 5.50281C99.2102 5.50281 99.8107 6.10169 99.8107 6.83453V20.5878C99.8107 21.3417 99.2102 21.9195 98.4544 21.9195C97.6985 21.9195 97.1191 21.3417 97.1191 20.5878V6.83453Z" fill="#231F20"/>
<path id="Vector_10" d="M108.706 22.0745C105.303 22.0745 102.678 19.6107 102.678 15.9964V15.9517C102.678 12.6027 105.059 9.84998 108.416 9.84998C112.154 9.84998 114 12.9101 114 15.6182C114 16.372 113.42 16.9052 112.733 16.9052H105.372C105.662 18.8122 107.018 19.8786 108.754 19.8786C109.889 19.8786 110.776 19.4794 111.535 18.8568C111.735 18.7019 111.914 18.6126 112.225 18.6126C112.825 18.6126 113.291 19.0775 113.291 19.7C113.291 20.0336 113.136 20.3199 112.936 20.5195C111.869 21.473 110.534 22.0719 108.709 22.0719L108.706 22.0745ZM111.374 15.1322C111.195 13.4012 110.173 12.0485 108.393 12.0485C106.747 12.0485 105.591 13.3146 105.346 15.1322H111.374Z" fill="#231F20"/>
</g>
</g>
</g>
</svg>
